<svg width="1100" height="231" xmlns="http://www.w3.org/2000/svg" xml:space="preserve" enable-background="new 0 0 1200 1200" version="1.1">

 <g>
  <title>Layer 1</title>
  <g id="svg_1">
   <g id="svg_2">
    <path id="svg_3" d="m663.50997,127.44902c-8.306,3.572 -16.527,6.414 -25.933,5.256c-8.699,-1.079 -16.456,-5.622 -23.661,-10.339c-5.99,-3.93 -12.354,-6.233 -18.653,-7.09c6.299,-0.862 12.664,-3.169 18.653,-7.094c7.205,-4.712 14.962,-9.26 23.661,-10.334c9.406,-1.158 17.627,1.688 25.933,5.26c10.737,4.606 21.164,1.817 29.505,-5.843c-4.624,3.443 -11.864,3.395 -17.173,2.219c-3.47,-0.76 -6.529,-2.016 -9.145,-4.504c-5.861,-5.596 -11.289,-13.817 -19.798,-15.802c-6.343,-1.476 -11.355,0.248 -16.195,3.085c1.83,-4.394 2.466,-9.048 1.41,-14.493c-1.079,-5.538 -4.235,-10.383 -5.6,-15.824c-1.269,-5.008 0.504,-11.364 1.162,-16.443c-0.955,7.293 -6.272,16.018 -11.541,20.947c-5.3,4.955 -11.391,9.525 -15.714,15.391c-2.427,3.306 -4.128,7.064 -4.588,11.174c-0.849,7.903 4.734,14.211 11.709,15.572c0.177,0.026 -7.97,10.135 -9.088,11.059c-12.757,10.511 -22.03,-11.885 -19.904,-21.65c6.966,-1.136 14.489,-4.044 15.983,-11.271c1.344,-6.529 -0.853,-10.652 -2.068,-16.929c-2.369,-12.116 -1.167,-24.448 -0.314,-36.612c-0.367,5.202 -4.363,13.389 -6.798,17.985c-2.736,5.185 -7.156,10.304 -11.351,14.335c-2.166,2.082 -4.725,4.858 -5.485,7.948c-0.27,1.759 -0.186,3.417 0.521,4.844c-0.831,-1.671 -0.897,-3.289 -0.521,-4.844c0.632,-4.071 3.2,-8.589 4.712,-11.493c2.688,-5.216 4.124,-9.981 3.492,-15.882c-1.525,-14.206 -16.514,-21.751 -17.906,-36.077c-1.273,3.554 0.142,8.231 0.888,11.846c1.485,7.262 3.965,12.019 2.816,19.674c-1.229,8.107 -3.43,16.001 -6.573,23.577c-2.696,6.506 -4.615,13.716 -4.796,20.889c-0.195,-7.174 -2.104,-14.383 -4.805,-20.889c-3.138,-7.576 -5.34,-15.471 -6.56,-23.577c-1.162,-7.656 1.313,-12.412 2.803,-19.674c0.729,-3.616 2.17,-8.292 0.893,-11.846c-1.392,14.326 -16.399,21.871 -17.906,36.077c-0.632,5.901 0.804,10.666 3.492,15.882c1.494,2.904 4.066,7.422 4.699,11.493c0.38,1.556 0.323,3.174 -0.517,4.844c0.698,-1.428 0.787,-3.085 0.517,-4.844c-0.747,-3.09 -3.315,-5.866 -5.472,-7.948c-4.213,-4.031 -8.615,-9.15 -11.351,-14.335c-2.431,-4.597 -6.431,-12.783 -6.816,-17.985c0.871,12.164 2.06,24.496 -0.301,36.612c-1.229,6.277 -3.417,10.4 -2.068,16.929c1.498,7.227 9.008,10.136 15.992,11.271c2.108,9.764 -7.152,32.161 -19.904,21.65c-1.122,-0.924 -9.278,-11.033 -9.097,-11.059c6.975,-1.361 12.562,-7.669 11.7,-15.572c-0.442,-4.111 -2.153,-7.868 -4.601,-11.174c-4.309,-5.866 -10.392,-10.436 -15.687,-15.391c-5.278,-4.929 -10.591,-13.654 -11.546,-20.947c0.663,5.079 2.427,11.435 1.162,16.443c-1.361,5.441 -4.526,10.286 -5.596,15.824c-1.061,5.445 -0.438,10.1 1.401,14.493c-4.831,-2.838 -9.853,-4.562 -16.187,-3.085c-8.517,1.985 -13.937,10.206 -19.811,15.802c-2.603,2.489 -5.675,3.744 -9.141,4.504c-5.313,1.176 -12.549,1.224 -17.159,-2.219c8.328,7.66 18.759,10.449 29.491,5.843c8.314,-3.572 16.54,-6.418 25.929,-5.26c8.708,1.074 16.452,5.622 23.661,10.334c5.998,3.925 12.359,6.233 18.666,7.094c-6.307,0.857 -12.668,3.16 -18.666,7.09c-7.209,4.716 -14.953,9.26 -23.661,10.339c-9.389,1.158 -17.615,-1.684 -25.929,-5.256c-10.732,-4.61 -21.163,-1.83 -29.491,5.844c4.61,-3.452 11.846,-3.399 17.159,-2.219c3.466,0.756 6.538,2.007 9.141,4.5c5.874,5.587 11.293,13.817 19.811,15.797c6.334,1.481 11.355,-0.243 16.187,-3.085c-1.839,4.402 -2.462,9.052 -1.401,14.507c1.07,5.53 4.235,10.374 5.596,15.82c1.264,4.999 -0.499,11.36 -1.162,16.443c0.955,-7.298 6.268,-16.032 11.546,-20.952c5.295,-4.951 11.378,-9.525 15.687,-15.396c2.449,-3.293 4.16,-7.072 4.601,-11.17c0.862,-7.912 -4.725,-14.215 -11.7,-15.572c-0.181,-0.035 7.974,-10.136 9.097,-11.05c12.752,-10.516 22.012,11.886 19.904,21.637c-6.984,1.14 -14.494,4.044 -15.992,11.271c-1.348,6.529 0.84,10.652 2.068,16.934c2.36,12.111 1.171,24.439 0.301,36.612c0.385,-5.207 4.385,-13.389 6.816,-17.995c2.736,-5.176 7.138,-10.29 11.351,-14.326c2.157,-2.082 4.725,-4.853 5.472,-7.952c0.269,-1.755 0.181,-3.417 -0.517,-4.84c0.84,1.658 0.897,3.293 0.517,4.84c-0.632,4.071 -3.205,8.589 -4.699,11.497c-2.688,5.225 -4.124,9.976 -3.492,15.891c1.507,14.202 16.514,21.743 17.906,36.073c1.278,-3.558 -0.163,-8.244 -0.893,-11.855c-1.49,-7.254 -3.965,-12.014 -2.803,-19.67c1.22,-8.107 3.421,-15.997 6.56,-23.573c2.7,-6.511 4.61,-13.716 4.805,-20.894c0.181,7.179 2.1,14.383 4.796,20.894c3.143,7.576 5.344,15.466 6.573,23.573c1.149,7.656 -1.33,12.416 -2.816,19.67c-0.747,3.611 -2.161,8.297 -0.888,11.855c1.393,-14.33 16.381,-21.871 17.906,-36.073c0.632,-5.914 -0.804,-10.666 -3.492,-15.891c-1.512,-2.908 -4.08,-7.426 -4.712,-11.497c-0.376,-1.547 -0.31,-3.182 0.521,-4.84c-0.707,1.423 -0.791,3.085 -0.521,4.84c0.76,3.099 3.32,5.87 5.485,7.952c4.195,4.036 8.615,9.15 11.351,14.326c2.436,4.606 6.431,12.788 6.798,17.995c-0.853,-12.173 -2.055,-24.501 0.314,-36.612c1.216,-6.281 3.412,-10.405 2.068,-16.934c-1.494,-7.227 -9.017,-10.131 -15.983,-11.271c-2.126,-9.751 7.147,-32.153 19.904,-21.637c1.118,0.915 9.264,11.015 9.088,11.05c-6.975,1.357 -12.558,7.66 -11.709,15.572c0.459,4.098 2.161,7.877 4.588,11.17c4.323,5.87 10.414,10.445 15.714,15.396c5.269,4.92 10.586,13.654 11.541,20.952c-0.659,-5.083 -2.431,-11.444 -1.162,-16.443c1.366,-5.445 4.522,-10.29 5.6,-15.82c1.056,-5.454 0.42,-10.104 -1.41,-14.507c4.84,2.842 9.852,4.566 16.195,3.085c8.509,-1.98 13.937,-10.211 19.798,-15.797c2.617,-2.493 5.675,-3.744 9.145,-4.5c5.309,-1.18 12.549,-1.233 17.173,2.219c-8.341,-7.674 -18.769,-10.454 -29.505,-5.844zm-57.184,-44.913c-1.622,-2.577 -2.245,-5.715 -1.582,-8.681c-0.239,1.092 1.154,3.54 1.582,4.495c0.751,1.662 1.724,3.174 3.231,4.248c5.251,3.761 5.804,-3.426 6.144,-7.006c0.217,-2.276 1.45,-5.711 0.756,-7.819c-0.685,-2.078 -2.542,-4.243 -2.705,-6.387c1.039,1.101 1.569,2.656 2.789,3.594c1.958,1.503 2.175,-0.553 2.528,-2.206c0.398,-1.972 1.092,-3.855 1.923,-5.72c-0.605,1.388 -2.068,10.392 0.955,9.565c1.644,-0.464 2.396,-2.917 3.815,-3.748c-0.31,1.454 -1.742,3.244 -2.78,4.38c-1.171,1.295 -3.037,1.945 -3.837,3.576c-0.866,1.741 -0.68,3.713 -0.738,5.587c-0.027,1.198 -0.323,2.705 -0.075,3.885c1.07,5.322 7.461,-0.039 8.721,-2.572c-1.29,2.17 -1.14,4.946 -3.293,6.648c-1.684,1.348 -5.464,2.771 -5.919,5.026c-0.787,3.93 3.753,2.741 5.87,2.073c3.559,-1.109 6.789,-3.076 10.366,-4.12c6.431,-1.874 10.993,-0.879 16.69,2.325c2.024,1.145 4.164,2.135 6.077,3.492c-6.625,-3.041 -15.753,-4.606 -22.825,-2.409c-5.419,1.684 -11.161,5.087 -16.227,7.695c-2.917,1.507 -6.246,3.173 -8.235,5.892c2.351,-2.307 4.093,-6.312 4.681,-9.556c0,-0.053 0.013,-0.106 0.013,-0.159c0.38,-2.272 0.283,-4.963 -1.622,-6.546c-2.289,-1.879 -4.681,-2.958 -6.303,-5.552zm-118.288,12.098c0,0.053 0.014,0.106 0.014,0.159c0.583,3.244 2.32,7.249 4.681,9.556c-1.993,-2.718 -5.313,-4.385 -8.23,-5.892c-5.07,-2.608 -10.807,-6.012 -16.231,-7.695c-7.076,-2.197 -16.213,-0.632 -22.821,2.409c1.901,-1.357 4.049,-2.347 6.078,-3.492c5.689,-3.205 10.264,-4.199 16.691,-2.325c3.576,1.043 6.798,3.01 10.348,4.12c2.117,0.668 6.665,1.857 5.892,-2.073c-0.451,-2.255 -4.248,-3.678 -5.941,-5.026c-2.139,-1.701 -1.993,-4.477 -3.284,-6.648c1.26,2.533 7.66,7.894 8.726,2.572c0.239,-1.18 -0.044,-2.687 -0.084,-3.885c-0.044,-1.874 0.133,-3.846 -0.729,-5.587c-0.809,-1.631 -2.661,-2.281 -3.85,-3.576c-1.03,-1.136 -2.462,-2.926 -2.771,-4.38c1.423,0.831 2.183,3.284 3.823,3.748c3.014,0.827 1.552,-8.178 0.951,-9.565c0.817,1.865 1.507,3.748 1.927,5.72c0.354,1.653 0.57,3.708 2.515,2.206c1.224,-0.937 1.764,-2.493 2.803,-3.594c-0.164,2.144 -2.02,4.31 -2.705,6.387c-0.703,2.108 0.535,5.543 0.743,7.819c0.34,3.58 0.897,10.767 6.157,7.006c1.512,-1.074 2.471,-2.586 3.222,-4.248c0.433,-0.955 1.825,-3.404 1.578,-4.495c0.663,2.966 0.039,6.104 -1.565,8.681c-1.627,2.594 -4.027,3.673 -6.308,5.551c-1.921,1.583 -2.018,4.275 -1.63,6.547zm7.935,53.378c1.604,2.577 2.227,5.724 1.565,8.69c0.247,-1.096 -1.145,-3.554 -1.578,-4.495c-0.751,-1.662 -1.71,-3.174 -3.222,-4.261c-5.26,-3.757 -5.817,3.434 -6.157,7.023c-0.208,2.272 -1.446,5.702 -0.743,7.801c0.685,2.078 2.542,4.257 2.705,6.396c-1.039,-1.109 -1.578,-2.652 -2.803,-3.593c-1.945,-1.503 -2.161,0.544 -2.515,2.21c-0.42,1.971 -1.109,3.845 -1.927,5.711c0.601,-1.379 2.064,-10.387 -0.951,-9.548c-1.64,0.451 -2.4,2.909 -3.823,3.74c0.309,-1.459 1.741,-3.244 2.771,-4.385c1.189,-1.299 3.041,-1.945 3.85,-3.576c0.862,-1.75 0.685,-3.704 0.729,-5.587c0.04,-1.207 0.323,-2.696 0.084,-3.885c-1.065,-5.322 -7.466,0.04 -8.726,2.581c1.291,-2.183 1.145,-4.955 3.284,-6.657c1.693,-1.339 5.49,-2.776 5.941,-5.035c0.774,-3.925 -3.775,-2.736 -5.892,-2.073c-3.549,1.118 -6.772,3.086 -10.348,4.133c-6.427,1.861 -11.001,0.875 -16.691,-2.334c-2.029,-1.145 -4.177,-2.135 -6.078,-3.487c6.608,3.041 15.745,4.61 22.821,2.413c5.424,-1.693 11.161,-5.083 16.231,-7.7c2.917,-1.512 6.237,-3.182 8.23,-5.892c-2.36,2.312 -4.097,6.317 -4.681,9.557c0,0.048 -0.014,0.11 -0.014,0.159c-0.389,2.272 -0.292,4.959 1.627,6.542c2.284,1.874 4.684,2.961 6.311,5.552zm31.75,-42.805c0.866,-0.849 1.684,-1.768 2.44,-2.82c2.621,-3.655 1.803,-8.778 0.278,-12.743c-2.343,-6.082 -3.678,-13.155 -10.524,-15.643c-1.706,-0.61 -3.563,-0.897 -5.127,-1.856c-1.622,-1.017 -2.918,-2.626 -4.084,-4.133c0.955,1.047 2.055,1.574 3.196,2.334c1.733,1.141 3.708,2.551 5.888,1.547c1.737,-0.8 1.304,-2.754 0.588,-4.177c-0.906,-1.825 -1.879,-3.965 -3.271,-5.481c-1.273,-1.419 -2.484,-2.643 -3.558,-4.287c-0.738,-1.141 -1.211,-2.75 -2.126,-3.749c0.973,1.056 1.649,2.343 2.705,3.311c1.627,1.49 2.117,0.278 1.653,-1.529c-0.632,-2.484 -1.945,-6.139 -1.653,-8.434c-0.248,2.002 1.194,4.964 1.861,6.798c0.234,0.663 0.451,2.736 1.494,2.321c0.721,-0.292 0.875,-2.268 0.977,-2.975c0.172,-1.189 -0.097,-2.422 0.12,-3.602c0.159,-0.932 0.102,-2.02 0.393,-2.882c-0.115,2.13 -0.005,4.279 0.084,6.414c0.035,1.101 -0.022,2.183 0.075,3.28c0.163,2.016 0.225,4.031 0.888,5.963c0.734,2.17 1.909,4.128 2.922,6.171c1.578,3.174 2.519,-0.159 2.74,-1.993c0.447,-3.501 0.769,-6.736 0.323,-10.264c0.836,1.565 0.994,4.119 1.061,5.901c0.097,2.479 -0.133,4.915 -0.155,7.355c-0.009,2.683 -0.411,5.357 0.601,7.943c0.941,2.436 2.639,4.447 3.62,6.833c1.021,2.449 1.87,4.898 3.466,7.094c4.19,-1.485 4.752,-13.088 5.025,-16.363c0.575,-7.094 -0.062,-14.348 -2.268,-21.142c-1.595,-4.876 -4.584,-9.335 -5.583,-14.405c-1.003,-5.149 1.459,-11.108 3.793,-15.652c-3.346,6.502 -2.674,13.91 -0.115,20.35c2.281,5.724 5.229,10.909 6.224,17.062c1.07,6.595 0.663,13.375 -0.172,19.975c-0.694,5.508 -2.532,9.733 -5.251,14.529c-4.509,7.935 -10.237,13.747 -18.671,17.349c3.269,-3.277 6.991,-5.302 10.143,-8.4zm13.949,63.588c-0.994,6.171 -3.943,11.342 -6.224,17.062c-2.559,6.445 -3.231,13.849 0.115,20.35c-2.334,-4.539 -4.796,-10.498 -3.793,-15.652c0.999,-5.061 3.987,-9.53 5.583,-14.41c2.206,-6.772 2.842,-14.038 2.268,-21.137c-0.274,-3.267 -0.836,-14.87 -5.025,-16.355c-1.596,2.193 -2.445,4.637 -3.466,7.09c-0.981,2.383 -2.679,4.398 -3.62,6.829c-1.012,2.59 -0.61,5.251 -0.601,7.939c0.022,2.458 0.252,4.884 0.155,7.36c-0.067,1.786 -0.225,4.349 -1.061,5.91c0.447,-3.527 0.124,-6.768 -0.323,-10.264c-0.221,-1.839 -1.162,-5.163 -2.74,-1.998c-1.013,2.033 -2.188,4 -2.922,6.171c-0.663,1.931 -0.725,3.943 -0.888,5.962c-0.097,1.088 -0.04,2.179 -0.075,3.28c-0.089,2.144 -0.199,4.283 -0.084,6.422c-0.292,-0.875 -0.234,-1.971 -0.393,-2.877c-0.217,-1.203 0.053,-2.422 -0.12,-3.611c-0.101,-0.721 -0.256,-2.687 -0.977,-2.979c-1.043,-0.42 -1.26,1.653 -1.494,2.312c-0.667,1.839 -2.108,4.796 -1.861,6.803c-0.292,-2.29 1.021,-5.95 1.653,-8.421c0.464,-1.821 -0.026,-3.023 -1.653,-1.533c-1.056,0.959 -1.733,2.254 -2.705,3.297c0.915,-0.99 1.388,-2.595 2.126,-3.735c1.074,-1.653 2.285,-2.878 3.558,-4.292c1.392,-1.52 2.365,-3.66 3.271,-5.476c0.716,-1.441 1.149,-3.386 -0.588,-4.186c-2.179,-1.003 -4.155,0.411 -5.888,1.56c-1.141,0.747 -2.241,1.269 -3.196,2.321c1.167,-1.499 2.462,-3.112 4.084,-4.133c1.565,-0.964 3.421,-1.237 5.127,-1.861c6.847,-2.475 8.182,-9.552 10.524,-15.625c1.525,-3.965 2.343,-9.105 -0.278,-12.752c-0.756,-1.056 -1.574,-1.976 -2.44,-2.82c-3.152,-3.103 -6.874,-5.127 -10.144,-8.389c8.434,3.593 14.162,9.401 18.671,17.34c2.718,4.796 4.557,9.022 5.251,14.538c0.837,6.594 1.243,13.378 0.173,19.96zm13.5,-32.302c-2.701,4.982 -3.89,10.343 -4.022,15.802c-0.15,-5.459 -1.335,-10.82 -4.04,-15.802c-6.71,-12.35 -17.46,-19.528 -29.275,-21.217c11.815,-1.684 22.565,-8.862 29.275,-21.217c2.705,-4.982 3.89,-10.357 4.04,-15.793c0.133,5.437 1.322,10.812 4.022,15.793c6.718,12.354 17.468,19.532 29.274,21.217c-11.806,1.688 -22.556,8.867 -29.274,21.217zm19.395,-11.148c-0.862,0.844 -1.688,1.763 -2.44,2.82c-2.612,3.647 -1.799,8.787 -0.283,12.752c2.352,6.073 3.678,13.15 10.529,15.625c1.697,0.623 3.567,0.897 5.119,1.861c1.631,1.021 2.913,2.634 4.102,4.133c-0.977,-1.052 -2.064,-1.574 -3.209,-2.321c-1.724,-1.149 -3.717,-2.564 -5.883,-1.56c-1.737,0.8 -1.308,2.745 -0.587,4.186c0.915,1.816 1.883,3.956 3.262,5.476c1.277,1.414 2.493,2.639 3.576,4.292c0.729,1.14 1.202,2.745 2.117,3.735c-0.968,-1.043 -1.649,-2.338 -2.701,-3.297c-1.635,-1.49 -2.135,-0.287 -1.667,1.533c0.641,2.471 1.958,6.131 1.649,8.421c0.261,-2.007 -1.189,-4.964 -1.848,-6.803c-0.239,-0.659 -0.451,-2.732 -1.49,-2.312c-0.734,0.292 -0.875,2.259 -0.981,2.979c-0.177,1.189 0.097,2.409 -0.12,3.611c-0.163,0.906 -0.106,2.002 -0.402,2.877c0.128,-2.14 0.013,-4.279 -0.075,-6.422c-0.031,-1.101 0.022,-2.193 -0.08,-3.28c-0.168,-2.02 -0.234,-4.031 -0.884,-5.962c-0.73,-2.17 -1.91,-4.137 -2.926,-6.171c-1.574,-3.165 -2.52,0.159 -2.754,1.998c-0.442,3.496 -0.747,6.736 -0.305,10.264c-0.84,-1.561 -0.994,-4.124 -1.065,-5.91c-0.093,-2.475 0.133,-4.902 0.159,-7.36c0.013,-2.687 0.411,-5.348 -0.597,-7.939c-0.951,-2.431 -2.635,-4.447 -3.62,-6.829c-1.017,-2.453 -1.87,-4.897 -3.466,-7.09c-4.194,1.485 -4.76,13.088 -5.025,16.355c-0.593,7.099 0.062,14.365 2.259,21.137c1.587,4.88 4.584,9.349 5.574,14.41c1.021,5.154 -1.454,11.112 -3.775,15.652c3.333,-6.502 2.665,-13.906 0.101,-20.35c-2.281,-5.719 -5.22,-10.891 -6.224,-17.062c-1.056,-6.582 -0.649,-13.366 0.182,-19.962c0.694,-5.516 2.524,-9.742 5.26,-14.538c4.495,-7.939 10.228,-13.747 18.653,-17.34c-3.266,3.264 -6.992,5.288 -10.135,8.391zm-8.517,-29.089c-2.736,-4.796 -4.566,-9.021 -5.26,-14.529c-0.831,-6.599 -1.238,-13.38 -0.182,-19.975c1.003,-6.153 3.943,-11.338 6.224,-17.062c2.564,-6.44 3.231,-13.849 -0.101,-20.35c2.321,4.544 4.796,10.502 3.775,15.652c-0.99,5.07 -3.987,9.53 -5.574,14.405c-2.197,6.794 -2.851,14.047 -2.259,21.142c0.265,3.275 0.831,14.878 5.025,16.363c1.596,-2.197 2.449,-4.645 3.466,-7.094c0.985,-2.387 2.67,-4.398 3.62,-6.833c1.008,-2.586 0.61,-5.26 0.597,-7.943c-0.027,-2.44 -0.252,-4.876 -0.159,-7.355c0.071,-1.781 0.225,-4.336 1.065,-5.901c-0.442,3.527 -0.137,6.763 0.305,10.264c0.234,1.834 1.18,5.167 2.754,1.993c1.017,-2.042 2.197,-4 2.926,-6.171c0.649,-1.932 0.716,-3.947 0.884,-5.963c0.101,-1.096 0.048,-2.179 0.08,-3.28c0.088,-2.135 0.203,-4.283 0.075,-6.414c0.296,0.862 0.239,1.949 0.402,2.882c0.217,1.18 -0.057,2.413 0.12,3.602c0.106,0.707 0.248,2.683 0.981,2.975c1.039,0.416 1.251,-1.657 1.49,-2.321c0.659,-1.835 2.108,-4.796 1.848,-6.798c0.309,2.294 -1.008,5.95 -1.649,8.434c-0.468,1.808 0.031,3.019 1.667,1.529c1.052,-0.968 1.733,-2.255 2.701,-3.311c-0.915,0.999 -1.388,2.608 -2.117,3.749c-1.083,1.644 -2.298,2.869 -3.576,4.287c-1.379,1.516 -2.347,3.656 -3.262,5.481c-0.721,1.423 -1.149,3.377 0.587,4.177c2.166,1.003 4.16,-0.406 5.883,-1.547c1.145,-0.76 2.232,-1.286 3.209,-2.334c-1.189,1.507 -2.471,3.116 -4.102,4.133c-1.552,0.959 -3.421,1.247 -5.119,1.856c-6.851,2.489 -8.177,9.561 -10.529,15.643c-1.516,3.965 -2.329,9.088 0.283,12.743c0.752,1.052 1.578,1.972 2.44,2.82c3.143,3.098 6.869,5.123 10.136,8.398c-8.426,-3.601 -14.159,-9.413 -18.654,-17.347zm84.717,44.613c-5.698,3.209 -10.259,4.194 -16.69,2.334c-3.576,-1.047 -6.807,-3.014 -10.366,-4.133c-2.117,-0.663 -6.657,-1.852 -5.87,2.073c0.455,2.259 4.234,3.695 5.919,5.035c2.153,1.702 2.002,4.473 3.293,6.657c-1.26,-2.542 -7.651,-7.903 -8.721,-2.581c-0.248,1.189 0.048,2.679 0.075,3.885c0.057,1.883 -0.129,3.837 0.738,5.587c0.8,1.631 2.666,2.276 3.837,3.576c1.039,1.141 2.471,2.926 2.78,4.385c-1.419,-0.831 -2.17,-3.289 -3.815,-3.74c-3.023,-0.84 -1.56,8.169 -0.955,9.548c-0.831,-1.865 -1.525,-3.74 -1.923,-5.711c-0.353,-1.667 -0.57,-3.713 -2.528,-2.21c-1.22,0.941 -1.75,2.484 -2.789,3.593c0.164,-2.139 2.02,-4.318 2.705,-6.396c0.694,-2.099 -0.539,-5.529 -0.756,-7.801c-0.34,-3.589 -0.893,-10.781 -6.144,-7.023c-1.507,1.087 -2.48,2.599 -3.231,4.261c-0.429,0.941 -1.821,3.399 -1.582,4.495c-0.663,-2.966 -0.04,-6.113 1.582,-8.69c1.622,-2.59 4.013,-3.678 6.303,-5.552c1.905,-1.582 2.002,-4.27 1.622,-6.542c0,-0.048 -0.013,-0.11 -0.013,-0.159c-0.588,-3.24 -2.33,-7.245 -4.681,-9.557c1.989,2.71 5.317,4.38 8.235,5.892c5.066,2.617 10.807,6.007 16.227,7.7c7.072,2.197 16.2,0.627 22.825,-2.413c-1.914,1.352 -4.053,2.342 -6.077,3.487z" fill="#d94c48"/>
    <path id="svg_4" d="m409.64697,107.12102c-2.462,-1.693 -5.773,-1.75 -9.154,-1.224c-3.744,0.579 -7.589,1.861 -10.48,2.462c-10.635,2.206 -20.974,5.251 -31.485,7.806c-13.154,3.205 -26.592,4.986 -40.046,6.254c-9.022,0.844 -17.756,2.285 -26.83,2.528c-3.753,0.097 -7.576,0.133 -11.435,0.163c1.556,-0.491 3.12,-0.95 4.659,-1.467c3.222,-1.07 6.542,-3.129 9.141,-5.255c12.788,-10.524 1.03,-30.278 -13.013,-32.378c-17.318,-2.613 -31.86,8.8 -47.994,12.275c-6.697,1.445 -11.961,1.414 -17.756,-2.67c-2.554,-1.799 -4.482,-3.929 -6.109,-6.626c5.229,8.641 9.137,13.808 20.081,14.679c11.594,0.915 21.407,-4.977 32.704,-5.622c14.785,-0.853 27.701,21.411 9.181,25.434c-11.055,2.409 -22.981,0.062 -33.885,-2.232c-23.745,-4.977 -47.154,-10.242 -71.036,-15.364c-28.594,-6.148 -53.692,-9.3 -82.803,-6.1c-11.559,1.269 -23.109,2.639 -34.606,4.398c-3.081,0.473 -12.319,3.554 -14.631,2.926c-34.079,7.178 -55.561,13.198 -0.376,4.526c27.626,-4.345 54.907,-4.61 82.75,-3.231c7.771,0.385 22.419,-2.113 25.924,6.979c3.355,8.712 -7.55,11.612 -13.879,11.183c-9.936,-0.694 -17.495,-7.528 -27.131,-8.889c-5.339,-0.752 -13.782,-0.602 -18.162,2.855c10.41,-3.028 20.806,1.247 28.709,7.643c9.512,7.678 22.282,12.377 34.76,10.317c5.618,-0.924 10.927,-4.491 12.482,-10.184c1.525,-5.503 -1.896,-11.643 -5.834,-15.382c7.408,0.411 15.196,2.714 22.37,4.579c8.659,2.245 17.358,4.933 25.973,7.488c15.957,4.729 30.963,8.615 47.362,10.67c31.153,3.916 58.001,4.531 89.283,0.628c19.524,-2.427 38.535,-6.772 57.754,-10.781c4.938,-1.03 11.634,-0.685 15.236,-4.964c3.218,-3.859 2.524,-10.52 -1.724,-13.424zm-142.572,-13.835c-3.505,-0.088 -7.369,-0.429 -10.807,0.398c3.788,-0.919 7.784,-1.432 11.664,-1.729c4.752,-0.358 10.016,-0.093 14.542,1.512c4.804,1.702 7.417,5.813 7.784,10.772c0.19,2.378 -0.146,4.8 -0.707,7.103c-0.747,3.046 -2.595,4.845 -3.832,7.479c3.143,-6.719 3.797,-14.149 -1.79,-19.909c-3.766,-3.881 -11.678,-5.507 -16.854,-5.626zm-127.813,39.918c-5.583,0.504 -9.746,-1.008 -14.666,-2.656c1.631,0.517 3.284,0.946 5.035,1.021c5.021,0.216 10.811,-0.491 15.134,-3.222c5.706,-3.62 4.283,-10.251 1.936,-15.833c1.507,3.589 3.713,5.729 3.81,9.95c0.164,6.921 -4.849,10.143 -11.249,10.74z" fill="#d94c48"/>
    <path id="svg_5" d="m1066.22097,118.07002c-27.622,4.341 -54.907,4.605 -82.741,3.227c-7.784,-0.38 -22.415,2.117 -25.92,-6.975c-3.359,-8.725 7.545,-11.62 13.871,-11.183c9.932,0.685 17.49,7.524 27.14,8.885c5.331,0.747 13.764,0.592 18.153,-2.855c-10.418,3.032 -20.81,-1.256 -28.704,-7.638c-9.512,-7.687 -22.286,-12.377 -34.764,-10.321c-5.622,0.924 -10.922,4.495 -12.487,10.18c-1.516,5.508 1.892,11.647 5.834,15.391c-7.404,-0.42 -15.196,-2.727 -22.361,-4.584c-8.664,-2.254 -17.362,-4.937 -25.991,-7.496c-15.944,-4.721 -30.937,-8.606 -47.34,-10.666c-31.162,-3.916 -58.006,-4.531 -89.287,-0.632c-19.533,2.436 -38.535,6.776 -57.763,10.79c-4.942,1.034 -11.62,0.676 -15.227,4.964c-3.24,3.859 -2.524,10.52 1.724,13.424c2.458,1.688 5.769,1.75 9.15,1.233c3.744,-0.579 7.585,-1.874 10.476,-2.479c10.63,-2.197 20.982,-5.242 31.489,-7.802c13.155,-3.205 26.587,-4.981 40.064,-6.25c8.995,-0.849 17.738,-2.298 26.813,-2.528c3.757,-0.097 7.581,-0.133 11.435,-0.159c-1.552,0.487 -3.116,0.959 -4.663,1.472c-3.222,1.061 -6.546,3.125 -9.132,5.26c-12.796,10.511 -1.039,30.261 13.008,32.373c17.323,2.604 31.878,-8.814 47.998,-12.284c6.688,-1.441 11.952,-1.41 17.743,2.674c2.572,1.808 4.49,3.925 6.122,6.613c-5.229,-8.628 -9.145,-13.8 -20.077,-14.67c-11.603,-0.911 -21.415,4.977 -32.718,5.622c-14.776,0.845 -27.697,-21.411 -9.172,-25.446c11.046,-2.409 22.976,-0.044 33.885,2.245c23.732,4.99 47.132,10.232 71.036,15.373c28.581,6.135 53.683,9.282 82.798,6.095c11.559,-1.282 23.104,-2.647 34.605,-4.402c3.072,-0.473 12.332,-3.554 14.622,-2.926c34.094,-7.182 55.571,-13.202 0.381,-4.525zm-233.296,18.348c3.501,0.084 7.368,0.429 10.803,-0.407c-3.788,0.928 -7.775,1.446 -11.66,1.733c-4.752,0.354 -10.016,0.093 -14.542,-1.512c-4.8,-1.693 -7.417,-5.813 -7.801,-10.781c-0.168,-2.36 0.163,-4.796 0.729,-7.094c0.743,-3.045 2.59,-4.84 3.828,-7.479c-3.134,6.719 -3.806,14.162 1.777,19.908c3.778,3.877 11.695,5.499 16.866,5.632zm120.379,-19.232c-1.516,-3.589 -3.717,-5.729 -3.815,-9.941c-0.168,-6.931 4.849,-10.166 11.245,-10.75c5.587,-0.513 9.746,1.008 14.666,2.661c-1.635,-0.517 -3.28,-0.955 -5.035,-1.021c-5.017,-0.212 -10.803,0.477 -15.126,3.218c-5.71,3.615 -4.282,10.258 -1.935,15.833z" fill="#d94c48"/>
   </g>
  </g>
 </g>
</svg>